<?xml version="1.0" encoding="UTF-8"?>
<!DOCTYPE svg PUBLIC "-//W3C//DTD SVG 1.1//EN" "http://www.w3.org/Graphics/SVG/1.1/DTD/svg11.dtd">
<!-- Creator: CorelDRAW X8 -->
<svg xmlns="http://www.w3.org/2000/svg" xml:space="preserve" width="209.997mm" height="101.122mm" version="1.1" style="shape-rendering:geometricPrecision; text-rendering:geometricPrecision; image-rendering:optimizeQuality; fill-rule:evenodd; clip-rule:evenodd"
viewBox="0 0 22483 10827"
 xmlns:xlink="http://www.w3.org/1999/xlink">
 <defs>
  <style type="text/css">
   <![CDATA[
    .fil0 {fill:#FEFEFE}
    .fil1 {fill:#FEFEFE;fill-rule:nonzero}
   ]]>
  </style>
 </defs>
 <g id="Capa_x0020_1">
  <metadata id="CorelCorpID_0Corel-Layer"/>
  <g id="_2365650067360">
   <path class="fil0" d="M3988 5673l-153 157c212,3 331,1 539,50 1125,266 1765,1442 1384,2499 -325,907 -1239,1430 -2180,1249 -146,-29 -307,-83 -445,-146 -787,-384 -1033,-990 -1101,-1847 -238,286 -478,416 -659,931 -50,144 -18,171 42,304 37,85 89,184 135,265 110,190 220,306 336,470l-180 267 320 297 264 -198 228 162 -89 305 398 193 175 -274 272 83 5 338 434 49 94 -308 284 1 97 305 433 -61 4 -325 272 -77 189 269 387 -192 -97 -310 236 -162 259 195 320 -287 -178 -269 182 -225 293 120 226 -380 -247 -204 104 -268 333 23 95 -409 -300 -129 24 -291 320 -92 -21 -425 -330 -16 -63 -303 283 -155 -162 -404 -309 70 -158 -270 218 -233 -234 -330 -305 153 -226 -219 134 -279 -350 -243 -221 228 -278 -131 39 -324 -332 -101c-61,75 -107,170 -166,251 -172,228 -363,459 -574,653l0 0z"/>
   <path class="fil0" d="M3973 7318c4,-29 7,-64 1,-99l-136 -1c-70,303 -329,471 -617,263 -57,-408 401,-605 596,-517 66,19 147,53 194,94 88,-18 84,14 181,-41 116,-108 85,-221 -18,-315 669,-39 1209,1450 735,1551 -358,75 -790,-259 -932,-314 -166,583 -386,569 -868,464 -67,223 -65,327 -401,478 34,54 135,127 197,153 122,-18 284,-243 344,-353 472,34 636,-69 846,-358 252,88 691,331 1019,121 286,-184 242,-723 146,-1010 -110,-327 -288,-551 -532,-766 -232,-204 -700,-372 -895,-42 -164,2 -203,-28 -369,46 -564,253 -528,856 -421,940 321,254 853,174 930,-294l0 0z"/>
   <path class="fil0" d="M4440 7173c-28,-47 -135,-63 -189,-20 -28,23 -43,101 -24,136 76,145 319,58 213,-116l0 0z"/>
   <path class="fil0" d="M1319 9382c-951,-1206 776,-2171 2083,-3601 1056,-1096 1349,-1281 1199,-2749 -226,2020 -5942,4704 -3282,6350l0 0z"/>
   <path class="fil0" d="M551 8430c-627,-1362 1747,-2974 2617,-3927 910,-947 1720,-1419 1426,-3018 -225,2020 -5931,4757 -4043,6945z"/>
   <path class="fil0" d="M162 6967c-241,-1363 2021,-2919 2892,-3873 910,-945 1856,-1628 1551,-3094 -226,2020 -5595,4380 -4443,6967z"/>
   <path class="fil1" d="M8202 6416l0 -4227 560 0 0 3730 2079 0 0 497 -2639 0zm2843 0l1623 -4227 614 0 1722 4227 -638 0 -488 -1281 -1781 0 -458 1281 -594 0 0 0zm1216 -1736l1441 0 -440 -1172c-134,-357 -234,-651 -304,-883 -58,275 -135,546 -233,814l-464 1241 0 0zm3175 1736l0 -4227 838 0 999 2991c93,279 159,488 203,627 47,-154 122,-381 225,-679l1018 -2939 749 0 0 4227 -537 0 0 -3538 -1234 3538 -505 0 -1219 -3602 0 3602 -537 0z"/>
   <path class="fil0" d="M20902 5919l-1054 0 0 497 1054 0c269,0 497,-25 682,-72 185,-47 340,-116 463,-208 123,-93 227,-224 311,-394 82,-170 125,-354 125,-552 0,-247 -69,-461 -206,-640 -138,-181 -334,-309 -590,-384 198,-98 345,-228 442,-387 98,-159 148,-329 148,-509 0,-196 -56,-381 -166,-559 -111,-178 -264,-309 -458,-396 -196,-85 -455,-126 -778,-126l-1027 0 0 495 846 0c304,0 519,20 643,59 126,40 221,114 289,221 67,106 101,229 101,371 0,148 -36,271 -108,370 -71,98 -179,169 -321,210 -108,33 -286,50 -534,50l-916 0 0 496 980 0c269,0 475,24 618,71 143,48 255,129 336,246 81,118 122,254 122,412 0,135 -27,254 -84,358 -55,102 -127,182 -213,236 -86,54 -194,92 -323,115 -74,13 -201,20 -382,20l0 0z"/>
   <path class="fil1" d="M8465 7152l0 1112c0,178 33,297 100,358 67,61 198,91 395,91 196,0 327,-30 394,-91 66,-61 99,-180 99,-358l0 -1112 213 0 0 1169c0,212 -54,364 -164,455 -110,92 -291,138 -543,138 -252,0 -433,-46 -543,-138 -110,-91 -165,-243 -165,-455l0 -1169 214 0zm1648 1717l0 -1329 109 0 844 934 0 -934 204 0 0 1329 -109 0 -844 -930 0 930 -204 0zm1615 0l0 -1332 211 0 0 1332 -211 0zm1250 0l-108 0 -667 -1329 221 0 499 995 492 -995 229 0 -666 1329zm924 0l0 -1329 1246 0 0 195 -1038 0 0 331 682 0 0 192 -682 0 0 420 1096 0 0 191 -1304 0zm1811 -774l706 0c72,0 126,-15 164,-47 38,-31 57,-76 57,-134 0,-58 -19,-103 -57,-133 -38,-31 -92,-46 -164,-46l-706 0 0 360zm0 194l0 580 -208 0 0 -1325 914 0c136,0 242,33 319,98 77,65 115,156 115,272 0,94 -30,176 -91,245 -60,69 -140,112 -237,127l370 583 -226 0 -377 -580 -579 0zm1402 410l101 -174c91,61 191,109 299,143 108,35 211,52 310,52 118,0 214,-24 287,-73 73,-48 109,-110 109,-185 0,-76 -34,-132 -100,-169 -67,-37 -171,-57 -315,-61 -242,-3 -408,-31 -498,-84 -91,-53 -136,-141 -136,-263 0,-114 50,-206 149,-275 99,-70 233,-105 400,-105 114,0 225,16 332,49 108,32 211,79 311,143l-105 172c-82,-56 -172,-99 -267,-130 -96,-30 -187,-46 -274,-46 -101,0 -183,18 -244,53 -61,36 -92,81 -92,138 0,59 31,101 93,126 62,25 169,37 321,37 212,0 372,36 479,107 108,72 162,178 162,320 0,125 -54,229 -164,313 -109,82 -251,124 -425,124 -129,0 -257,-19 -384,-55 -127,-37 -244,-89 -349,-157zm1696 170l0 -1332 210 0 0 1332 -210 0zm985 0l0 -1144 -561 0 0 -185 1329 0 0 185 -561 0 0 1144 -207 0zm1357 0l0 -678 -606 -651 268 0 441 472 432 -472 277 0 -608 648 0 681 -204 0z"/>
  </g>
 </g>
</svg>
